# xmcd
#
# Track frame offsets: 
#        150
#        17335
#        32496
#        49937
#        62155
#        76506
#        90533
#        109052
#        122687
#        133400
#
# Disc length: 2053 seconds
#
# Revision: 2
# Processed by: cddbd v1.5.2PL0 Copyright (c) Steve Scherf et al.
# Submitted via: ExactAudioCopyFreeDBPlugin 1.0
#
DISCID=7608030a
DTITLE=Emmylou Harris - 1981 - Evangeline
DYEAR=1981
DGENRE=Country
TTITLE0=I Don't Have To Crawl
TTITLE1=How High The Moon
TTITLE2=Spanish Johnny (With Waylon Jennings)
TTITLE3=Bad Moon Rising
TTITLE4=Evangeline
TTITLE5=Hot Burrito #2
TTITLE6=Millworker
TTITLE7=Oh Atlanta
TTITLE8=Mister Sandman
TTITLE9=Ashes By Now
EXTD=(c)1981 WEA\nupc 07599568801\n(p)Brian Ahern for Happy Sack Produ
EXTD=ctions
EXTT0=
EXTT1=
EXTT2=
EXTT3=
EXTT4=
EXTT5=
EXTT6=
EXTT7=
EXTT8=
EXTT9=
PLAYORDER=
